<svg width="1024" height="1024" viewBox="0 0 1024 1024" fill="none" xmlns="http://www.w3.org/2000/svg">
<g id="Logo / Classique-cleansave" clip-path="url(#clip0_631_657)">
<rect width="1024" height="1024" fill="#2888EF"/>
<g id="Group 34">
<path id="body" d="M87.04 1072.15C87.04 1060.82 89.5302 1042.84 92.6321 1031.9L115.313 951.877C118.401 940.98 127.862 926.115 136.386 918.725L336 769.61L631.54 701L918.332 838.017C928.521 842.884 942.483 853.982 949.543 862.836L995.177 920.064C1002.23 928.904 1010.85 944.814 1014.4 955.486L1041 1072.15H87.04Z" fill="#FFF88B"/>
<g id="Pattern-element">
<path id="Vector 1" d="M167.725 947.275L152.475 969.074" stroke="#5F9CD5" stroke-width="8.3871"/>
<path id="Vector 1_2" d="M187.399 948.971L172.698 981.493" stroke="#5F9CD5" stroke-width="8.3871"/>
<path id="Vector 2" d="M211.913 949.114L189.86 992.002" stroke="#5F9CD5" stroke-width="8.3871"/>
<path id="Vector 3" d="M236.032 948.716L208.774 1001.73" stroke="#5F9CD5" stroke-width="8.3871"/>
</g>
<g id="Pattern-element_2">
<path id="Vector 1_3" d="M898.753 918.82L897.176 963.199" stroke="#5F9CD5" stroke-width="14"/>
<path id="Vector 1_4" d="M870.826 901.31L857.741 959.431" stroke="#5F9CD5" stroke-width="14"/>
<path id="Vector 2_2" d="M838.008 876.867L824.305 956.192" stroke="#5F9CD5" stroke-width="14"/>
<path id="Vector 3_2" d="M806.261 852.101L789.323 950.149" stroke="#5F9CD5" stroke-width="14"/>
</g>
<path id="Intersect" d="M712.988 739.913L804.6 888.252C804.6 888.252 692.49 920.34 651.22 938.95C623.689 951.365 542.4 1024.7 491.329 1072.15H253.226C242.207 1015.88 222.641 919.177 214.383 898.492C209.92 887.314 201.645 880.513 193.076 876.377L233.045 846.519L337.38 811.03L582.53 712.378L631.54 701L712.988 739.913Z" fill="#653018" fill-opacity="0.12"/>
<path id="Intersect_2" d="M709.733 738.357L792.14 880.22C792.14 880.22 689.96 902.77 629.24 940.78C580.622 971.214 506.514 1044.25 478.904 1072.15H306.532C287.349 1018.28 248.768 910.256 239.983 888.252C234.167 873.686 221.877 866.551 210.9 863.062L235.64 844.581L337.38 811.03L582.53 712.378L631.54 701L709.733 738.357Z" fill="#653018" fill-opacity="0.12"/>
</g>
<g id="Group 35">
<path id="Vector" d="M314.71 1073.08L275.12 947.88C275.12 947.88 264.27 893.301 244.65 875.23C225.03 857.159 168.17 849.37 168.17 849.37L340.62 743.24L677.5 661L814.65 880.35C814.65 880.35 730.828 879.686 658.89 916.16C586.952 952.634 529.575 1024.89 529.575 1024.89L95.3999 1608.48L314.71 1073.08Z" fill="#FFF88B"/>
<g id="Pattern-element_3">
<path id="Vector 2_3" d="M309.83 790.461L287 780.5" stroke="#5F9CD5" stroke-width="9.3075"/>
<path id="Vector 3_3" d="M312.45 817.101L270.5 794" stroke="#5F9CD5" stroke-width="9.3075"/>
</g>
<path id="Intersect_3" d="M421.811 723.419L340.62 743.24L262.127 791.546C273.111 793.874 284.906 798.925 296.7 808.34C341.689 844.253 368.95 929.51 368.95 929.51L434.78 904.04L421.811 723.419Z" fill="#16304C" fill-opacity="0.17"/>
<path id="Intersect_4" d="M414.973 725.089L340.62 743.24L199.628 830.01C216.303 824.507 246.261 820.266 276.22 844.18C321.209 880.093 389.78 1028.12 389.78 1028.12L429.66 929.64L414.973 725.089Z" fill="#773F0F" fill-opacity="0.32988"/>
<g id="Pattern-element_4">
<path id="Vector 1_5" d="M722.646 758.82L732.394 795.092" stroke="#5F9CD5" stroke-width="11.8409"/>
</g>
<g id="Pattern-element_5">
<path id="Vector 1_6" d="M551.869 866.358L544.337 894.904" stroke="#5F9CD5" stroke-width="9.3075"/>
<path id="Vector 1_7" d="M573.009 860.586L570.157 900.091" stroke="#5F9CD5" stroke-width="9.3075"/>
<path id="Vector 2_4" d="M598.596 851.343L592.059 904.461" stroke="#5F9CD5" stroke-width="9.3075"/>
<path id="Vector 3_4" d="M623.563 841.689L615.483 907.344" stroke="#5F9CD5" stroke-width="9.3075"/>
</g>
<g id="Pattern-element_6">
<path id="Vector 1_8" d="M499.2 1031.47L517.987 1008.7" stroke="#5F9CD5" stroke-width="9.3075"/>
<path id="Vector 1_9" d="M477.585 1027.87L496.706 993.182" stroke="#5F9CD5" stroke-width="9.3075"/>
<path id="Vector 2_5" d="M450.478 1025.56L478.643 980.048" stroke="#5F9CD5" stroke-width="9.3075"/>
<path id="Vector 3_5" d="M423.762 1023.88L458.575 967.628" stroke="#5F9CD5" stroke-width="9.3075"/>
</g>
</g>
<g id="Group 36">
<g id="Neck">
<path id="Rectangle 2" d="M352.253 889.553L321 737.953L673.793 661L654.318 772.328L380.415 1162.16L352.253 889.553Z" fill="#FFBAAC"/>
<path id="Intersect_5" d="M433.2 863.887C537.905 817.589 641.363 725.066 641.363 725.066L515.223 695.588L321 737.953L352.253 889.553L357.732 942.586C366.227 914.951 386.778 884.414 433.2 863.887Z" fill="#563010" fill-opacity="0.1"/>
<path id="Intersect_6" d="M666.75 701.263L671.897 671.84C647.894 750.216 579.785 810.259 494.343 818.716C428.672 825.217 367.095 799.804 324.498 754.92L332.062 791.608C369.303 823.404 418.595 841.481 472.654 838.907L473.117 838.885C560.179 834.739 634.83 778.245 666.75 701.263Z" fill="#79391C" fill-opacity="0.118405"/>
</g>
<g id="head">
<g id="Group">
<path id="Rectangle 3" fill-rule="evenodd" clip-rule="evenodd" d="M217.442 254.107C208.802 168.611 270.431 92.3573 355.055 83.7938L480.403 71.1092C603.314 58.6713 712.829 149.269 725.003 273.372L750.983 538.231C756.397 593.42 716.459 642.595 661.879 648.055L508.573 663.393C372.008 677.056 250.003 576.338 236.066 438.415L217.442 254.107Z" fill="black"/>
<path id="Rectangle 3_2" fill-rule="evenodd" clip-rule="evenodd" d="M241.904 371.045C236.464 315.697 276.149 266.465 330.572 261.078L546.486 239.707C600.897 234.321 649.412 274.788 654.855 330.17L680.215 588.17C691.621 704.21 608.451 807.427 494.392 818.716C380.359 830.004 278.669 745.067 267.264 629.045L241.904 371.045Z" fill="#FFBAAC"/>
<g id="Group 20">
<path id="Rectangle 5" d="M359.952 466.221L359.673 466.26C343.105 468.564 331.785 484.099 334.39 500.957C336.995 517.815 352.539 529.613 369.107 527.309L369.386 527.27C385.955 524.966 397.275 509.431 394.67 492.573C392.065 475.715 376.521 463.916 359.952 466.221Z" fill="white"/>
<path id="Rectangle 5_2" d="M523.393 454.792L523.114 454.831C506.545 457.136 495.225 472.67 497.83 489.528C500.436 506.387 515.979 518.185 532.548 515.88L532.827 515.841C549.396 513.537 560.715 498.002 558.11 481.144C555.505 464.286 539.962 452.488 523.393 454.792Z" fill="white"/>
<path id="Rectangle 4" fill-rule="evenodd" clip-rule="evenodd" d="M294.982 459.737C293.015 448.715 301.45 438.548 313.885 437.019L395.427 426.999C407.834 425.474 419.491 433.195 421.454 444.195C423.421 455.216 414.986 465.384 402.551 466.912L321.009 476.932C308.602 478.457 296.945 470.736 294.982 459.737Z" fill="black"/>
<path id="Rectangle 4_2" fill-rule="evenodd" clip-rule="evenodd" d="M468.637 447.593C466.67 436.572 475.105 426.404 487.541 424.876L569.083 414.855C581.49 413.331 593.146 421.052 595.109 432.051C597.076 443.073 588.641 453.24 576.206 454.768L494.664 464.789C482.257 466.314 470.601 458.593 468.637 447.593Z" fill="black"/>
</g>
<g id="Union">
<path d="M622.736 131.178C603.354 133.104 589.119 151.183 591.031 171.55L600.91 276.822C602.667 295.551 617.448 309.709 634.926 310.35L641.87 384.342C643.78 404.698 661.075 419.655 680.496 417.725C699.878 415.799 714.112 397.72 712.201 377.354L702.322 272.081C700.564 253.353 685.784 239.194 668.306 238.553L661.362 164.562C659.452 144.206 642.157 129.248 622.736 131.178Z" fill="black"/>
<path d="M438.566 262.217L439.123 268.053C441.059 288.356 426.73 306.394 407.207 308.335C392.659 309.781 379.293 301.932 372.599 289.457L375.299 317.703C377.239 338.003 362.897 356.042 343.353 357.984C323.77 359.931 306.32 345.039 304.381 324.752L303.854 319.238C299.928 333.34 288.057 344.209 273.162 345.69C253.603 347.634 236.178 332.734 234.24 312.401L227.027 236.72C225.089 216.391 239.413 198.33 258.931 196.39C278.49 194.446 295.915 209.346 297.853 229.68L298.853 240.174C302.798 226.115 314.674 215.281 329.571 213.801C344.148 212.352 357.542 220.231 364.238 232.722L361.145 200.289C359.209 179.987 373.538 161.948 393.062 160.007C404.992 158.821 416.127 163.886 423.44 172.628C426.917 157.807 439.168 146.205 454.691 144.663C474.358 142.71 491.89 157.583 493.846 177.859L499.097 232.279C501.055 252.566 486.658 270.599 467.03 272.549C456.12 273.633 445.868 269.538 438.566 262.217Z" fill="black"/>
</g>
<path id="Rectangle 4_3" d="M467.87 700.275L444.825 702.497C432.273 703.707 423.121 714.676 424.384 726.998C425.647 739.319 436.846 748.326 449.398 747.116L472.443 744.894C484.996 743.684 494.147 732.715 492.885 720.394C491.622 708.072 480.423 699.065 467.87 700.275Z" fill="#F4A08F"/>
<path id="Rectangle 4_4" fill-rule="evenodd" clip-rule="evenodd" d="M461.651 647.706C463.66 634.139 475.587 624.839 488.355 626.943L572.083 640.743C584.823 642.842 593.518 655.57 591.514 669.109C589.505 682.676 577.578 691.977 564.81 689.873L481.082 676.073C468.342 673.973 459.647 661.246 461.651 647.706Z" fill="black"/>
<path id="Rectangle 4_5" fill-rule="evenodd" clip-rule="evenodd" d="M438.685 646.52C434.123 634.962 420.738 629.131 408.727 633.517L329.966 662.28C317.982 666.656 311.974 679.597 316.527 691.131C321.088 702.689 334.474 708.52 346.485 704.134L425.246 675.371C437.23 670.995 443.237 658.054 438.685 646.52Z" fill="black"/>
<path id="Rectangle 7" fill-rule="evenodd" clip-rule="evenodd" d="M661.408 438.266C660.097 424.241 669.866 411.795 683.168 410.474C696.497 409.15 708.368 419.483 709.676 433.471L716.944 511.219C718.255 525.245 708.485 537.69 695.183 539.012C681.854 540.336 669.983 530.002 668.675 516.014L661.408 438.266Z" fill="#FFBAAC"/>
</g>
</g>
</g>
</g>
<defs>
<clipPath id="clip0_631_657">
<rect width="1024" height="1024" fill="white"/>
</clipPath>
</defs>
</svg>
